<svg width="11" height="13" viewBox="0 0 11 13" fill="none" xmlns="http://www.w3.org/2000/svg">
<path d="M3.625 6.5H7.375M3.625 9H7.375M8.625 12.125H2.375C2.04348 12.125 1.72554 11.9933 1.49112 11.7589C1.2567 11.5245 1.125 11.2065 1.125 10.875V2.125C1.125 1.79348 1.2567 1.47554 1.49112 1.24112C1.72554 1.0067 2.04348 0.875 2.375 0.875H5.86625C6.032 0.875035 6.19094 0.940907 6.30813 1.05812L9.69188 4.44187C9.80909 4.55906 9.87496 4.718 9.875 4.88375V10.875C9.875 11.2065 9.7433 11.5245 9.50888 11.7589C9.27446 11.9933 8.95652 12.125 8.625 12.125Z" stroke="#EEBB19" stroke-width="1.5" stroke-linecap="round" stroke-linejoin="round"/>
</svg>
