<svg width="48" height="48" viewBox="0 0 48 48" fill="none" xmlns="http://www.w3.org/2000/svg">
<g clip-path="url(#clip0_362_403)">
<path d="M43.3567 7.31208L43.6156 8.82867C43.6156 8.91533 43.8746 10.5619 43.8746 13.1184C43.8746 15.545 43.6588 18.8815 42.7524 22.5213C41.8891 25.9878 40.3353 30.1476 37.5298 34.2207C34.7242 38.2938 30.6238 42.2803 24.7106 45.4868L23.9768 45.8767L23.2431 45.4868C17.2867 42.2803 13.2295 38.2505 10.4239 34.2207C7.61837 30.1476 6.06453 26.0311 5.20129 22.5213C4.29488 18.8815 4.07907 15.545 4.07907 13.1184C4.07907 10.5619 4.33804 8.91533 4.33804 8.82867L4.59701 7.31208C4.68334 6.79211 4.33804 6.31547 3.8201 6.22881C3.30215 6.14214 2.82736 6.48879 2.74104 7.00877L2.48207 8.52535C2.4389 8.69868 2.17993 10.4319 2.17993 13.1184C2.17993 15.675 2.4389 19.1415 3.38847 22.9979C4.20855 26.6811 5.84872 31.0575 8.82691 35.3473C11.8051 39.6371 16.1213 43.8835 22.3367 47.22L23.5021 47.87C23.8042 48.0433 24.1063 48.0433 24.4085 47.87L25.5738 47.22C31.7892 43.8835 36.1054 39.6371 39.0836 35.3473C42.0618 31.0575 43.702 26.6811 44.6084 23.0413C45.5579 19.1848 45.8169 15.7616 45.8169 13.1618C45.8169 10.4753 45.5579 8.74201 45.5148 8.56868L45.2558 7.0521C45.1695 6.53212 44.6947 6.18547 44.1767 6.27214C43.6156 6.31547 43.2703 6.79211 43.3567 7.31208Z" fill="#171921" stroke="#171921" stroke-width="0.60501" stroke-miterlimit="10"/>
<path d="M9.77645 6.27217L23.9768 1.93907L38.4793 6.40217C38.9973 6.57549 39.5152 6.27217 39.6878 5.7522C39.8605 5.23223 39.5584 4.71226 39.0404 4.53893L24.2358 0.0324983C24.0631 -0.0108328 23.8473 -0.0108328 23.6747 0.0324983L9.21534 4.45227C8.6974 4.62559 8.43842 5.14557 8.56791 5.66554C8.74056 6.14218 9.25851 6.4455 9.77645 6.27217Z" fill="#171921" stroke="#171921" stroke-width="0.60501" stroke-miterlimit="10"/>
<path d="M2.78425 7.61537L23.1136 47.4366C23.2863 47.7399 23.5884 47.9566 23.9337 47.9566C24.279 47.9566 24.6243 47.7833 24.797 47.4366L37.1845 24.1678V24.1245L45.1695 7.57204C45.3853 7.0954 45.2127 6.53209 44.7379 6.31544C44.2631 6.09878 43.702 6.27211 43.4862 6.74875L35.5012 23.3012L23.9769 44.9668L4.46758 6.74875C4.20861 6.27211 3.6475 6.09878 3.17271 6.31544C2.74109 6.57542 2.52528 7.13873 2.78425 7.61537Z" fill="#171921" stroke="#171921" stroke-width="0.60501" stroke-miterlimit="10"/>
<path d="M12.4957 25.3377H35.1127C35.6307 25.3377 36.0623 24.9044 36.0623 24.3844C36.0623 23.8645 35.6307 23.4311 35.1127 23.4311H12.4957C11.9778 23.4311 11.5461 23.8645 11.5461 24.3844C11.5461 24.9044 11.9778 25.3377 12.4957 25.3377Z" fill="#171921" stroke="#171921" stroke-width="0.60501" stroke-miterlimit="10"/>
</g>
<defs>
<clipPath id="clip0_362_403">
<rect width="48" height="48" fill="white"/>
</clipPath>
</defs>
</svg>
