<svg width="16" height="13" viewBox="0 0 16 13" fill="none" xmlns="http://www.w3.org/2000/svg">
<path d="M13.1449 8.62105C12.9575 8.43484 12.7188 8.30791 12.4589 8.25627L10.8567 7.93817C9.97851 7.76368 9.06683 7.885 8.2658 8.28294L8.05235 8.38831C7.25132 8.78625 6.33964 8.90757 5.46144 8.73308L4.16531 8.47567C3.94864 8.43266 3.72463 8.44346 3.51317 8.50709C3.30171 8.57072 3.10932 8.68523 2.95308 8.84045M5.47419 1H10.844L10.1727 1.66688V5.11595C10.1728 5.46966 10.3143 5.80885 10.5661 6.05891L13.9222 9.39329C14.7679 10.2336 14.1685 11.67 12.9724 11.67H3.34507C2.14896 11.67 1.55023 10.2336 2.39597 9.39329L5.75207 6.05891C6.00385 5.80885 6.14533 5.46966 6.14541 5.11595V1.66688L5.47419 1Z" stroke="#EEBB19" stroke-width="2" stroke-linecap="round" stroke-linejoin="round"/>
</svg>
