<svg id="visual" viewBox="0 0 900 300" width="900" height="300" xmlns="http://www.w3.org/2000/svg" xmlns:xlink="http://www.w3.org/1999/xlink" version="1.1"><path d="M0 251L21.5 247.2C43 243.3 86 235.7 128.8 226.7C171.7 217.7 214.3 207.3 257.2 212.7C300 218 343 239 385.8 245.2C428.7 251.3 471.3 242.7 514.2 240.7C557 238.7 600 243.3 642.8 244.8C685.7 246.3 728.3 244.7 771.2 235.7C814 226.7 857 210.3 878.5 202.2L900 194L900 301L878.5 301C857 301 814 301 771.2 301C728.3 301 685.7 301 642.8 301C600 301 557 301 514.2 301C471.3 301 428.7 301 385.8 301C343 301 300 301 257.2 301C214.3 301 171.7 301 128.8 301C86 301 43 301 21.5 301L0 301Z" fill="#f3f4f6" stroke-linecap="round" stroke-linejoin="miter"></path></svg>