<svg width="70" height="70" viewBox="0 0 70 70" fill="none" xmlns="http://www.w3.org/2000/svg">
<path d="M35 70C54.33 70 70 54.33 70 35C70 15.67 54.33 0 35 0C15.67 0 0 15.67 0 35C0 54.33 15.67 70 35 70Z" fill="#1A82FF"/>
<path d="M47.796 20.588C44.766 16.876 40.5047 15.02 35.012 15.02C29.5193 15.02 25.2573 16.876 22.226 20.588C19.194 24.302 17.6787 29.1027 17.68 34.99C17.6813 40.8773 19.196 45.6773 22.224 49.39C25.254 53.104 29.516 54.9607 35.01 54.96C40.504 54.9593 44.7653 53.1027 47.794 49.39C50.824 45.678 52.3393 40.878 52.34 34.99C52.3407 29.102 50.826 24.3013 47.796 20.588Z" fill="white"/>
<path d="M34.948 22.782C36.394 22.782 37.6233 23.176 38.636 23.964C39.6487 24.752 40.382 25.8207 40.836 27.17C41.2893 28.52 41.6093 29.814 41.796 31.052C41.9827 32.29 42.0753 33.6027 42.074 34.99C42.074 36.698 41.9707 38.2267 41.764 39.576L29.306 26.594C30.458 24.054 32.3387 22.7833 34.948 22.782Z" fill="#1A82FF"/>
<path d="M35.072 47.198C33.626 47.198 32.3967 46.804 31.384 46.016C30.3713 45.228 29.638 44.1593 29.184 42.81C28.728 41.46 28.408 40.166 28.224 38.928C28.0373 37.69 27.9447 36.3773 27.946 34.99C27.946 34.076 27.9753 33.2133 28.034 32.402L39.916 44.782C38.762 46.392 37.1473 47.1973 35.072 47.198Z" fill="#1A82FF"/>
<path d="M18.648 22.614L17.118 24.082L28.72 36.176L30.25 34.708L18.648 22.614ZM40.508 35.234L38.978 36.702L50.58 48.796L52.11 47.328L40.508 35.234Z" fill="#1A82FF"/>
</svg>
